<svg width="2150" height="2170" viewBox="0 0 2150 2170" fill="none" xmlns="http://www.w3.org/2000/svg">
<path d="M21.108 1083.49C57.2931 873.649 133.684 687.015 250.281 523.584C366.877 358.136 513.628 230.014 690.533 139.219C867.438 46.4063 1060.43 0 1269.5 0C1444.39 0 1597.17 32.2827 1727.84 96.848C1858.51 161.413 1960.03 253.217 2032.4 372.259C2104.77 491.302 2143.97 563.535 2150 724.948H1514.81C1458.29 668.438 1447.41 653.724 1387.1 611.353C1326.79 568.982 1252.41 547.796 1163.95 547.796C1027.26 547.796 909.654 596.22 811.15 693.068C712.646 789.916 649.322 920.056 621.178 1083.49C613.137 1125.86 609.116 1171.26 609.116 1219.68C609.116 1344.77 641.281 1443.64 705.61 1516.28C771.95 1586.89 862.412 1622.2 976.999 1622.2C1065.45 1622.2 1146.87 1601.02 1221.25 1558.65C1297.64 1516.28 1360.96 1455.75 1411.22 1377.06H2050.49C1954 1621.19 1802.22 1814.89 1595.16 1958.14C1388.1 2099.38 1151.89 2170 886.536 2170C703.6 2170 544.787 2134.69 410.098 2064.07C277.419 1993.45 175.9 1893.58 105.54 1764.45C35.18 1635.32 0 1486.01 0 1316.53C0 1237.84 7.036 1160.16 21.108 1083.49Z" fill="#0A67F2"/>
</svg>
