<svg width="32" height="32" viewBox="0 0 32 32" fill="none" xmlns="http://www.w3.org/2000/svg">
<path d="M25.2415 7.52194C23.5418 6.74207 21.7192 6.1675 19.8135 5.83842C19.7788 5.83207 19.7442 5.84794 19.7263 5.87968C19.4919 6.29659 19.2323 6.84047 19.0504 7.26797C17.0008 6.96111 14.9616 6.96111 12.954 7.26797C12.7722 6.83097 12.5031 6.29659 12.2676 5.87968C12.2498 5.849 12.2151 5.83312 12.1804 5.83842C10.2758 6.16645 8.45317 6.74102 6.75248 7.52194C6.73775 7.52829 6.72513 7.53888 6.71676 7.55263C3.25965 12.7175 2.3126 17.7554 2.77719 22.7308C2.77929 22.7551 2.79296 22.7784 2.81188 22.7932C5.09278 24.4683 7.30222 25.4852 9.47064 26.1592C9.50534 26.1698 9.54211 26.1571 9.56419 26.1285C10.0771 25.428 10.5344 24.6895 10.9264 23.9127C10.9495 23.8673 10.9275 23.8133 10.8802 23.7953C10.1549 23.5202 9.46433 23.1847 8.80003 22.8038C8.74748 22.7731 8.74327 22.698 8.79161 22.662C8.93141 22.5572 9.07124 22.4482 9.20472 22.3382C9.22887 22.3181 9.26252 22.3139 9.29092 22.3266C13.6551 24.3191 18.3798 24.3191 22.6925 22.3266C22.7209 22.3128 22.7545 22.3171 22.7797 22.3372C22.9133 22.4472 23.0531 22.5572 23.1939 22.662C23.2422 22.698 23.2391 22.7731 23.1865 22.8038C22.5222 23.1921 21.8316 23.5202 21.1053 23.7942C21.0581 23.8122 21.037 23.8673 21.0602 23.9127C21.4606 24.6884 21.9178 25.427 22.4213 26.1275C22.4424 26.1571 22.4802 26.1698 22.5149 26.1592C24.6938 25.4852 26.9032 24.4683 29.1841 22.7932C29.2041 22.7784 29.2167 22.7562 29.2188 22.7319C29.7749 16.9797 28.2875 11.9831 25.2761 7.55368C25.2688 7.53888 25.2562 7.52829 25.2415 7.52194ZM11.5781 19.7013C10.2642 19.7013 9.18158 18.495 9.18158 17.0136C9.18158 15.5322 10.2432 14.3259 11.5781 14.3259C12.9235 14.3259 13.9957 15.5427 13.9746 17.0136C13.9746 18.495 12.913 19.7013 11.5781 19.7013ZM20.4389 19.7013C19.1251 19.7013 18.0424 18.495 18.0424 17.0136C18.0424 15.5322 19.104 14.3259 20.4389 14.3259C21.7844 14.3259 22.8565 15.5427 22.8355 17.0136C22.8355 18.495 21.7844 19.7013 20.4389 19.7013Z" fill="#E5E5E5"/>
</svg>
