<svg width="32" height="32" viewBox="0 0 32 32" fill="none" xmlns="http://www.w3.org/2000/svg">
<path fill-rule="evenodd" clip-rule="evenodd" d="M16.0003 2.99561C8.63366 2.99561 2.66699 8.96227 2.66699 16.3289C2.66699 22.2289 6.48366 27.2123 11.7837 28.9789C12.4503 29.0956 12.7003 28.6956 12.7003 28.3456C12.7003 28.0289 12.6837 26.9789 12.6837 25.8623C9.33366 26.4789 8.46699 25.0456 8.20033 24.2956C8.05033 23.9123 7.40033 22.7289 6.83366 22.4123C6.36699 22.1623 5.70033 21.5456 6.81699 21.5289C7.86699 21.5123 8.61699 22.4956 8.86699 22.8956C10.067 24.9123 11.9837 24.3456 12.7503 23.9956C12.867 23.1289 13.217 22.5456 13.6003 22.2123C10.6337 21.8789 7.53366 20.7289 7.53366 15.6289C7.53366 14.1789 8.05033 12.9789 8.90033 12.0456C8.76699 11.7123 8.30033 10.3456 9.03366 8.51227C9.03366 8.51227 10.1503 8.16227 12.7003 9.87894C13.767 9.57894 14.9003 9.42894 16.0337 9.42894C17.167 9.42894 18.3003 9.57894 19.367 9.87894C21.917 8.14561 23.0337 8.51227 23.0337 8.51227C23.767 10.3456 23.3003 11.7123 23.167 12.0456C24.017 12.9789 24.5337 14.1623 24.5337 15.6289C24.5337 20.7456 21.417 21.8789 18.4503 22.2123C18.9337 22.6289 19.3503 23.4289 19.3503 24.6789C19.3503 26.4623 19.3337 27.8956 19.3337 28.3456C19.3337 28.6956 19.5837 29.1123 20.2503 28.9789C22.8972 28.0854 25.1973 26.3842 26.8267 24.115C28.4562 21.8457 29.3329 19.1226 29.3337 16.3289C29.3337 8.96227 23.367 2.99561 16.0003 2.99561Z" fill="#E5E5E5"/>
</svg>
