<svg width="25" height="25" viewBox="0 0 25 25" fill="none" xmlns="http://www.w3.org/2000/svg">
<path d="M0.887968 12.4826C1.29189 10.0651 2.14463 7.91492 3.44617 6.03208C4.74772 4.12599 6.38586 2.64993 8.36062 1.6039C10.3354 0.534635 12.4897 0 14.8235 0C16.7758 0 18.4812 0.37192 19.9399 1.11576C21.3985 1.8596 22.5317 2.91725 23.3396 4.2887C24.1474 5.66016 24.585 6.49233 24.6523 8.35193H17.5619C16.9309 7.70089 16.8094 7.53138 16.1362 7.04323C15.463 6.55509 14.6327 6.31102 13.6453 6.31102C12.1194 6.31102 10.8066 6.8689 9.70704 7.98466C8.60746 9.10042 7.90059 10.5997 7.58643 12.4826C7.49666 12.9707 7.45178 13.4937 7.45178 14.0516C7.45178 15.4928 7.81083 16.6318 8.52892 17.4686C9.26945 18.2822 10.2793 18.689 11.5584 18.689C12.5458 18.689 13.4546 18.4449 14.2849 17.9568C15.1376 17.4686 15.8445 16.7713 16.4055 15.8647H23.5415C22.4644 18.6774 20.7702 20.9089 18.4588 22.5593C16.1474 24.1864 13.5107 25 10.5486 25C8.50648 25 6.73369 24.5932 5.23018 23.7796C3.74912 22.9661 2.61588 21.8154 1.83046 20.3278C1.04505 18.8401 0.652344 17.1199 0.652344 15.1674C0.652344 14.2608 0.730885 13.3659 0.887968 12.4826Z" fill="white"/>
</svg>
